# xmcd
# 
# Track frame offsets:
#     150
#     19220
#     34835
#     54585
#     68337
#     86370
#     103127
#     117002
#     136277
#     161180
# 
# Disc length: 2408
# 
# Revision: 4
# Processed by: cddbd v1.5.2PL0 Copyright (c) Steve Scherf et al.
# Submitted via: BonkEnc v1.0.8
# 
DISCID=7d09660a
DTITLE=Juan Luis Guerra - Colección Romántica [CD2]
DYEAR=2000
DGENRE=Merengue
TTITLE0=Bachata Rosa
TTITLE1=Cuando Te Beso
TTITLE2=Estrellitas Y Duendes
TTITLE3=La Hormiguita
TTITLE4=Vivir
TTITLE5=Palomita Blanca
TTITLE6=Amapola
TTITLE7=Coronita De Flores
TTITLE8=Señales De Humo
TTITLE9=Testimonio
EXTD=YEAR: 2000 ID3G: 86
EXTT0=
EXTT1=
EXTT2=
EXTT3=
EXTT4=
EXTT5=
EXTT6=
EXTT7=
EXTT8=
EXTT9=
PLAYORDER=
